<?xml version="1.0" encoding="UTF-8"?>
<svg version="1.1" xmlns="http://www.w3.org/2000/svg" width="512" height="512">
<path d="M0 0 C79.2 0 158.4 0 240 0 C240 73.92 240 147.84 240 224 C160.8 224 81.6 224 0 224 C0 150.08 0 76.16 0 0 Z " fill="#F86132" transform="translate(136,200)"/>
<path d="M0 0 C1.19012192 -0.00852997 2.38024384 -0.01705994 3.60643005 -0.02584839 C5.55232025 -0.02448883 5.55232025 -0.02448883 7.53752136 -0.02310181 C8.92427939 -0.02908944 10.31103409 -0.03589553 11.69778442 -0.04345703 C15.45825403 -0.06110158 19.21863257 -0.06581179 22.97913957 -0.0670886 C25.3309074 -0.06851177 27.68265219 -0.07278453 30.03441429 -0.07808304 C38.24575135 -0.09657903 46.45702354 -0.1047543 54.66838074 -0.10317993 C62.31138488 -0.10197902 69.9541064 -0.12307241 77.59703904 -0.15466726 C84.16792461 -0.18085823 90.73871803 -0.19154603 97.30965537 -0.19026911 C101.23015673 -0.18976025 105.15040692 -0.1954008 109.07085609 -0.21662521 C112.76049191 -0.23605513 116.44963821 -0.23610013 120.13929176 -0.22159195 C122.12967436 -0.21851929 124.12005725 -0.23514747 126.11036682 -0.25247192 C134.33505102 -0.19490663 139.94346912 0.65860019 146.30387878 6.23226929 C146.84270691 6.88324585 147.38153503 7.53422241 147.93669128 8.20492554 C148.49098816 8.85332397 149.04528503 9.50172241 149.61637878 10.16976929 C152.86442586 14.88382679 153.30369406 18.86408804 153.25700378 24.53695679 C153.25275894 25.55846077 153.25275894 25.55846077 153.24842834 26.6006012 C153.23729653 28.76056009 153.21220585 30.92009348 153.18669128 33.07992554 C153.1766524 34.55062264 153.16752814 36.0213263 153.15934753 37.49203491 C153.13738042 41.08396839 153.10289948 44.67565538 153.06169128 48.26742554 C153.83319519 48.25854309 154.6046991 48.24966064 155.39958191 48.24050903 C162.69626207 48.16011778 169.99272528 48.09933743 177.28973389 48.06017685 C181.04057318 48.03936656 184.7910443 48.01117087 188.54167175 47.96566772 C192.1662199 47.92197304 195.79041556 47.89823918 199.41520691 47.88791656 C200.79303022 47.88056722 202.17083584 47.86621607 203.54850769 47.84450531 C212.67707527 47.70646468 219.20642993 48.01272787 226.30387878 54.23226929 C226.84270691 54.88324585 227.38153503 55.53422241 227.93669128 56.20492554 C228.49098816 56.85332397 229.04528503 57.50172241 229.61637878 58.16976929 C232.52900011 62.39700618 233.31435751 66.09732187 233.35221863 71.18759155 C233.36497833 72.3555275 233.37773804 73.52346344 233.3908844 74.72679138 C233.39422287 76.60508888 233.39422287 76.60508888 233.39762878 78.52133179 C233.40428558 79.81433701 233.41094238 81.10734222 233.4178009 82.43952942 C233.42974692 85.17052554 233.43348423 87.90139538 233.43229675 90.63241577 C233.43209307 94.12861947 233.45945625 97.62401479 233.49384117 101.12002659 C233.52143539 104.462141 233.52025816 107.80410487 233.52262878 111.14633179 C233.53699982 112.40055435 233.55137085 113.65477692 233.56617737 114.94700623 C233.56002411 116.11179001 233.55387085 117.27657379 233.54753113 118.47665405 C233.55038116 119.50081924 233.5532312 120.52498444 233.5561676 121.58018494 C232.91285437 125.07628246 231.8431056 126.08956455 229.06169128 128.26742554 C226.04606628 128.65805054 226.04606628 128.65805054 222.81169128 128.51742554 C221.73403503 128.48133179 220.65637878 128.44523804 219.54606628 128.40805054 C218.72622253 128.36164429 217.90637878 128.31523804 217.06169128 128.26742554 C217.06537846 129.57425293 217.06906563 130.88108032 217.07286453 132.22750854 C217.15951694 163.25677988 217.22546383 194.28601853 217.2659526 225.31538182 C217.27095536 229.13549687 217.27613266 232.95561166 217.28141785 236.77572632 C217.28246709 237.5362346 217.28351633 238.29674289 217.28459737 239.08029687 C217.30199727 251.39043171 217.33353265 263.70049174 217.37030247 276.01058221 C217.40772347 288.64415481 217.42992958 301.27768826 217.43804526 313.91131401 C217.44353065 321.70544526 217.46084862 329.49936507 217.49335715 337.29343122 C217.51702299 343.27239589 217.51950821 349.2511791 217.51412201 355.230196 C217.51522262 357.68116113 217.52318136 360.13213426 217.53851318 362.58305168 C217.55842667 365.9305296 217.55362462 369.27710427 217.54270935 372.62460327 C217.55436072 373.59349236 217.56601208 374.56238144 217.57801652 375.5606308 C217.51471539 382.74736217 215.87429198 388.05781758 211.09684753 393.50961304 C210.44587097 394.04844116 209.79489441 394.58726929 209.12419128 395.14242554 C208.47579285 395.69672241 207.82739441 396.25101929 207.15934753 396.82211304 C203.34227356 399.45212676 199.86702107 400.51670669 195.25210857 400.52469444 C194.30657012 400.53114334 193.36103166 400.53759223 192.38684052 400.54423654 C191.35630565 400.54113934 190.32577077 400.53804213 189.26400757 400.53485107 C187.61222747 400.54164774 187.61222747 400.54164774 185.92707807 400.54858172 C182.22996336 400.56126174 178.53299528 400.559603 174.83586121 400.55795288 C172.18803355 400.56393588 169.54021746 400.57068413 166.89239502 400.57830811 C160.44204916 400.59491496 153.99173986 400.60041751 147.54137441 400.60153286 C142.29746812 400.60248351 137.05357388 400.60659465 131.8096714 400.61293411 C116.93859866 400.63054587 102.06755478 400.63977312 87.19647153 400.63827316 C85.99413153 400.6381533 85.99413153 400.6381533 84.76750183 400.63803101 C83.96496183 400.63794924 83.16242184 400.63786748 82.33556245 400.63778324 C69.33058383 400.63697042 56.32572106 400.6561073 43.32077595 400.68430774 C29.96382419 400.71304267 16.60692891 400.72684769 3.24994546 400.72512019 C-4.24755126 400.72445648 -11.74492654 400.72994013 -19.2423954 400.75147629 C-25.62621994 400.76969617 -32.00986801 400.77402892 -38.39370731 400.76045744 C-41.64947895 400.75393162 -44.90484217 400.75597397 -48.16059494 400.77116394 C-51.693924 400.78658117 -55.22636439 400.77733026 -58.75967407 400.76190186 C-59.78351678 400.77218898 -60.80735949 400.78247611 -61.86222774 400.79307497 C-69.21823593 400.72210761 -74.59375357 399.19828136 -80.18049622 394.30258179 C-80.71932434 393.65160522 -81.25815247 393.00062866 -81.81330872 392.32992554 C-82.36760559 391.6815271 -82.92190247 391.03312866 -83.49299622 390.36508179 C-86.68382868 385.73406278 -87.1908105 381.77238767 -87.20573425 376.20124817 C-87.21026537 375.50151085 -87.21479648 374.80177354 -87.2194649 374.08083206 C-87.23209797 371.74249024 -87.23048929 369.40438164 -87.22883606 367.06600952 C-87.23482181 365.3870514 -87.24162747 363.70809604 -87.24919128 362.02914429 C-87.2668491 357.47351722 -87.27154644 352.91796529 -87.27282286 348.36230731 C-87.27472269 344.55987316 -87.28208081 340.75745649 -87.28916705 336.95502907 C-87.30544611 327.98696796 -87.31033626 319.01894699 -87.30891418 310.0508728 C-87.30771137 300.79458419 -87.32884217 291.53852822 -87.36040151 282.28229851 C-87.38652897 274.33654221 -87.39728304 266.39086211 -87.39600337 258.44506317 C-87.39549289 253.69863296 -87.40122364 248.95240973 -87.42235947 244.20602226 C-87.44168367 239.74489634 -87.44190649 235.28417619 -87.4273262 230.82303619 C-87.42523007 229.18473533 -87.42998669 227.54640944 -87.44204712 225.90815163 C-87.45743235 223.67382663 -87.44823817 221.44091279 -87.43278503 219.20661926 C-87.43387457 217.95578773 -87.4349641 216.70495619 -87.43608665 215.41622066 C-86.84798671 211.69607542 -85.89296294 210.52423782 -82.93830872 208.26742554 C-80.93830872 207.73617554 -80.93830872 207.73617554 -78.93830872 207.76742554 C-78.27830872 207.75711304 -77.61830872 207.74680054 -76.93830872 207.73617554 C-73.97824627 208.52244212 -72.84155764 209.88772226 -70.93830872 212.26742554 C-70.43608665 215.30689907 -70.43608665 215.30689907 -70.43278503 218.94087219 C-70.42364985 219.94526088 -70.42364985 219.94526088 -70.41433012 220.96994025 C-70.39871959 223.21260344 -70.41152156 225.45420022 -70.42414856 227.6968689 C-70.41868826 229.30509615 -70.41144714 230.9133182 -70.40255737 232.52153015 C-70.38721218 235.98432697 -70.38442152 239.44682747 -70.39132309 242.9096508 C-70.40209966 248.38486714 -70.38473927 253.85977324 -70.36351013 259.33494568 C-70.33323754 267.99515752 -70.32155426 276.65527763 -70.31793368 285.31553799 C-70.31128876 300.82315919 -70.28229168 316.33071673 -70.23283732 331.83825976 C-70.21633436 337.28114959 -70.21092364 342.72390606 -70.21442771 348.1668185 C-70.21486475 351.55297539 -70.20730015 354.93908193 -70.197752 358.32522392 C-70.19506927 359.89536841 -70.19582084 361.4655231 -70.20026207 363.0356636 C-70.20590679 365.17956948 -70.19935273 367.32311069 -70.18986511 369.46699524 C-70.18952963 370.6665834 -70.18919415 371.86617155 -70.1888485 373.10211086 C-69.93250486 376.34075135 -69.58846977 378.46794042 -67.93830872 381.26742554 C-63.44403894 384.20743235 -57.8289483 383.54500675 -52.65193176 383.52139282 C-51.08273121 383.52607279 -51.08273121 383.52607279 -49.48182964 383.53084731 C-45.97117186 383.53883412 -42.46068659 383.5325009 -38.95002747 383.5262146 C-36.4352661 383.52892415 -33.92050552 383.53248488 -31.40574646 383.53683472 C-25.28124873 383.54501661 -19.15681504 383.5438067 -13.03231645 383.53800943 C-8.05488066 383.53349297 -3.07745861 383.53287998 1.89997864 383.53505707 C2.60835005 383.53536353 3.31672146 383.53567 4.04655868 383.53598575 C5.48559436 383.5366252 6.92463003 383.53727363 8.3636657 383.53793094 C21.85801428 383.54363424 35.35233568 383.53707633 48.84667981 383.5263302 C60.42585089 383.51739469 72.00498187 383.51894673 83.58415222 383.52816772 C97.03016285 383.53887035 110.47614967 383.54308492 123.92216396 383.5369432 C125.35591062 383.5363061 126.78965727 383.53567736 128.22340393 383.53505707 C129.28155452 383.53459424 129.28155452 383.53459424 130.3610819 383.53412206 C135.33263077 383.5323951 140.30416453 383.53531026 145.27571106 383.54001617 C151.96678779 383.54621051 158.65777702 383.54180136 165.34885025 383.53022766 C167.80751545 383.52757855 170.26618701 383.52835043 172.7248497 383.53275299 C176.07509139 383.53819986 179.42508833 383.53138451 182.77531433 383.52139282 C183.75342229 383.52585427 184.73153025 383.53031571 185.73927784 383.53491235 C192.1991137 383.6275869 192.1991137 383.6275869 198.06169128 381.26742554 C200.94508328 376.81690842 200.35059112 371.36964359 200.34016418 366.25111389 C200.34594986 365.23657135 200.35173553 364.22202881 200.35769653 363.17674255 C200.37474358 359.76252117 200.37756635 356.34843419 200.38053894 352.93417358 C200.38994732 350.4505089 200.40022611 347.96684738 200.41130638 345.48318958 C200.43583339 339.5002009 200.4514702 333.51725073 200.46289029 327.53422781 C200.47654107 320.61310124 200.50287707 313.6920553 200.52922058 306.77096558 C200.59250385 288.49898642 200.63854065 270.22695083 200.68669128 251.95492554 C200.81044128 211.13805054 200.93419128 170.32117554 201.06169128 128.26742554 C111.30169128 128.26742554 21.54169128 128.26742554 -70.93830872 128.26742554 C-70.93830872 137.50742554 -70.93830872 146.74742554 -70.93830872 156.26742554 C-74.93830872 160.26742554 -74.93830872 160.26742554 -76.93830872 160.79867554 C-77.92830872 160.78320679 -77.92830872 160.78320679 -78.93830872 160.76742554 C-79.59830872 160.77773804 -80.25830872 160.78805054 -80.93830872 160.79867554 C-83.89443975 160.01345323 -85.03815432 158.64237429 -86.93830872 156.26742554 C-87.39241028 153.24301147 -87.39241028 153.24301147 -87.32893372 149.75180054 C-87.31604309 148.50140991 -87.30315247 147.25101929 -87.28987122 145.96273804 C-87.25635559 144.66078491 -87.22283997 143.35883179 -87.18830872 142.01742554 C-87.17026184 140.70000366 -87.15221497 139.38258179 -87.13362122 138.02523804 C-87.08647142 134.77190246 -87.02066915 131.52002929 -86.93830872 128.26742554 C-87.75815247 128.31383179 -88.57799622 128.36023804 -89.42268372 128.40805054 C-90.50033997 128.44414429 -91.57799622 128.48023804 -92.68830872 128.51742554 C-93.75565247 128.56383179 -94.82299622 128.61023804 -95.92268372 128.65805054 C-99.70750442 128.16778879 -100.60068559 127.22709938 -102.93830872 124.26742554 C-103.44624329 121.60037231 -103.44624329 121.60037231 -103.45588684 118.52426147 C-103.46849548 117.36916077 -103.48110413 116.21406006 -103.49409485 115.0239563 C-103.48599792 113.7791449 -103.477901 112.5343335 -103.46955872 111.25180054 C-103.47338562 109.96686707 -103.47721252 108.68193359 -103.4811554 107.35806274 C-103.48704829 104.63771324 -103.47850104 101.91788957 -103.45979309 99.19760132 C-103.43709323 95.72969128 -103.45006863 92.26302577 -103.47408295 88.7951622 C-103.492123 85.46811219 -103.47943832 82.14138578 -103.46955872 78.81430054 C-103.47765564 77.57758606 -103.48575256 76.34087158 -103.49409485 75.06668091 C-103.406158 66.92268934 -102.491617 61.32229424 -96.97346497 55.02523804 C-96.3224884 54.48640991 -95.67151184 53.94758179 -95.00080872 53.39242554 C-94.02821106 52.56098022 -94.02821106 52.56098022 -93.03596497 51.71273804 C-88.63894363 48.68313302 -84.88028492 48.0191611 -79.58747864 48.04037476 C-77.69608406 48.04060135 -77.69608406 48.04060135 -75.76647949 48.04083252 C-74.40057719 48.05104418 -73.03467652 48.06147614 -71.66877747 48.07211304 C-70.26345013 48.07584613 -68.85812018 48.0786917 -67.45278931 48.08068848 C-63.76531204 48.08830165 -60.0779939 48.10793001 -56.39057922 48.13009644 C-52.62330782 48.15060495 -48.85601055 48.15970087 -45.08869934 48.16976929 C-37.70516349 48.19117829 -30.32175845 48.225286 -22.93830872 48.26742554 C-22.96972961 46.92164429 -22.96972961 46.92164429 -23.00178528 45.54867554 C-23.07038488 42.18642695 -23.12031166 38.82493319 -23.15803528 35.46224976 C-23.17802167 34.01323636 -23.20522069 32.56430229 -23.24006653 31.11557007 C-23.45951655 21.75021769 -23.49313832 14.46518337 -16.97346497 7.02523804 C-16.3224884 6.48640991 -15.67151184 5.94758179 -15.00080872 5.39242554 C-14.35241028 4.83812866 -13.70401184 4.28383179 -13.03596497 3.71273804 C-8.79547291 0.79098373 -5.10623884 0.01658131 0 0 Z M-4.93830872 19.26742554 C-8.42387142 27.08380483 -8.42387142 27.08380483 -6.93830872 48.26742554 C40.58169128 48.26742554 88.10169128 48.26742554 137.06169128 48.26742554 C138.85054567 26.72710031 138.85054567 26.72710031 134.06169128 18.26742554 C130.60849713 16.26980497 127.58263668 16.01541478 123.64141846 16.00672913 C122.56620438 15.99964432 121.4909903 15.99255951 120.38319397 15.98526001 C118.62895615 15.98897614 118.62895615 15.98897614 116.83927917 15.99276733 C115.59972977 15.9876564 114.36018036 15.98254547 113.08306885 15.97727966 C109.69042758 15.96577163 106.29803085 15.96330839 102.90538716 15.96584296 C100.06993321 15.96691419 97.2345017 15.96202544 94.39905256 15.95723754 C87.70821253 15.94615033 81.01742864 15.94570057 74.32658386 15.95175171 C67.43111535 15.95779214 60.53585086 15.94547704 53.64041716 15.92418164 C47.71329451 15.90655184 41.78623673 15.90056643 35.85908884 15.90381938 C32.32211058 15.90563014 28.78527788 15.9030169 25.24832344 15.88910484 C21.30330049 15.87416766 17.35853637 15.88350874 13.41349792 15.89511108 C12.24603027 15.88746735 11.07856262 15.87982361 9.87571716 15.87194824 C1.99424238 15.83958002 1.99424238 15.83958002 -4.93830872 19.26742554 Z " fill="#383838" transform="translate(190.9383087158203,55.732574462890625)"/>
<path d="M0 0 C0.88545549 0.00027238 1.77091098 0.00054477 2.68319845 0.00082541 C3.7107051 -0.01097993 4.73821176 -0.02278527 5.79685497 -0.03494835 C7.47996454 -0.01617158 7.47996454 -0.01617158 9.19707632 0.00298452 C10.39430146 -0.0034043 11.59152659 -0.00979312 12.82503128 -0.01637554 C16.14526271 -0.02899885 19.46405656 -0.01918477 22.78416514 0.00013924 C26.36569478 0.01556079 29.9471317 0.00216582 33.52866507 -0.00760508 C40.5435956 -0.02213722 47.55823688 -0.00989215 54.57314003 0.01150817 C62.74064927 0.0355108 70.90809213 0.03380425 79.07562882 0.03120226 C93.64770626 0.02751135 108.21964735 0.04834386 122.79168081 0.0824523 C136.93461952 0.11554412 151.07741511 0.12971067 165.22039175 0.12346792 C180.61771398 0.11670494 196.01497624 0.11916153 211.41228962 0.13882732 C212.63343885 0.14038655 212.63343885 0.14038655 213.87925777 0.14197728 C215.51437455 0.14406819 217.14949131 0.14617916 218.78460804 0.14831045 C224.47901272 0.15520808 230.17339893 0.15587502 235.86780691 0.15442801 C242.80653784 0.15298876 249.74515202 0.1626707 256.68384421 0.18637437 C260.22471224 0.19824003 263.76541747 0.2053558 267.30630445 0.1995368 C271.14265064 0.1934185 274.9786901 0.21051739 278.81499624 0.23003531 C279.93706929 0.22470738 281.05914233 0.21937945 282.21521759 0.21389008 C283.24272424 0.22294672 284.27023089 0.23200336 285.32887411 0.24133444 C286.2143296 0.24290564 287.09978509 0.24447684 288.01207256 0.24609566 C291.08948411 0.71295692 292.98818681 1.82393183 295.50603628 3.62444448 C302.21589636 17.04416463 296.50603628 33.62074124 296.50603628 48.62444448 C196.18603628 48.62444448 95.86603628 48.62444448 -7.49396372 48.62444448 C-7.49396372 1.87635621 -7.49396372 1.87635621 0 0 Z " fill="#42D2E7" transform="translate(111.4939637184143,119.3755555152893)"/>
<path d="M0 0 C4.07729103 0.84943563 5.40728265 2.39876434 8 5.625 C8.48998803 8.3184505 8.67043109 10.37926089 8.62145996 13.06408691 C8.63104319 14.17388782 8.63104319 14.17388782 8.64082003 15.30610895 C8.6560587 17.78079792 8.63561799 20.25388288 8.61523438 22.72851562 C8.61873593 24.50437449 8.62439491 26.28023023 8.63204956 28.05607605 C8.64630223 32.8764181 8.6292313 37.69619003 8.60576439 42.51647758 C8.58566373 47.56034004 8.59153454 52.60417863 8.59387207 57.64807129 C8.59381849 66.1185039 8.57405649 74.58871351 8.54199219 83.05908203 C8.50509905 92.85269403 8.49631656 102.64601388 8.5032897 112.4396863 C8.50959447 121.85995206 8.49884088 131.28011761 8.47932434 140.70036316 C8.47114856 144.70982796 8.46844113 148.71924155 8.47001648 152.72871399 C8.47089528 157.4500154 8.45668028 162.17103908 8.43078995 166.89226723 C8.42362645 168.62526923 8.42154541 170.35830077 8.42490768 172.09131432 C8.4286212 174.45648211 8.41388012 176.8208388 8.39440918 179.18591309 C8.40240107 180.21534334 8.40240107 180.21534334 8.41055441 181.26557016 C8.34988805 185.53500103 7.59719564 188.22088963 5 191.625 C2.19084526 193.02957737 0.11189466 192.87395157 -3 192.625 C-6.1359157 190.84515595 -6.84102736 190.10191793 -8 186.625 C-8.10372769 184.21610479 -8.15216746 181.83565597 -8.15390015 179.42642212 C-8.1582824 178.6882637 -8.16266465 177.95010527 -8.1671797 177.18957841 C-8.18056414 174.70922809 -8.18674569 172.22891328 -8.19287109 169.74853516 C-8.20077217 167.97297505 -8.20904113 166.19741655 -8.21765137 164.42185974 C-8.24386493 158.58594292 -8.25917566 152.75001893 -8.2734375 146.9140625 C-8.27879695 144.90608083 -8.28417445 142.89809922 -8.28956985 140.89011765 C-8.3111952 132.53983749 -8.32993346 124.18955926 -8.34119225 115.83925819 C-8.35744288 103.8650271 -8.39065164 91.89111989 -8.44759309 79.9170109 C-8.48625423 71.50080596 -8.50582024 63.08468779 -8.51111281 54.66839635 C-8.51477075 49.63958926 -8.5268394 44.61112767 -8.55921555 39.58241653 C-8.58922984 34.85289055 -8.59563184 30.12392036 -8.58383179 25.39431953 C-8.58361051 23.65805937 -8.59196004 21.92177391 -8.60948563 20.18560219 C-8.63210858 17.81557717 -8.62391651 15.44757947 -8.60800171 13.07754517 C-8.6218838 12.38989409 -8.63576588 11.70224302 -8.65006864 10.99375403 C-8.58744176 7.21076772 -8.05033055 5.68766901 -5.64949989 2.69827843 C-3 0.625 -3 0.625 0 0 Z " fill="#383837" transform="translate(328,215.375)"/>
<path d="M0 0 C4.07729103 0.84943563 5.40728265 2.39876434 8 5.625 C8.48998803 8.3184505 8.67043109 10.37926089 8.62145996 13.06408691 C8.63104319 14.17388782 8.63104319 14.17388782 8.64082003 15.30610895 C8.6560587 17.78079792 8.63561799 20.25388288 8.61523438 22.72851562 C8.61873593 24.50437449 8.62439491 26.28023023 8.63204956 28.05607605 C8.64630223 32.8764181 8.6292313 37.69619003 8.60576439 42.51647758 C8.58566373 47.56034004 8.59153454 52.60417863 8.59387207 57.64807129 C8.59381849 66.1185039 8.57405649 74.58871351 8.54199219 83.05908203 C8.50509905 92.85269403 8.49631656 102.64601388 8.5032897 112.4396863 C8.50959447 121.85995206 8.49884088 131.28011761 8.47932434 140.70036316 C8.47114856 144.70982796 8.46844113 148.71924155 8.47001648 152.72871399 C8.47089528 157.4500154 8.45668028 162.17103908 8.43078995 166.89226723 C8.42362645 168.62526923 8.42154541 170.35830077 8.42490768 172.09131432 C8.4286212 174.45648211 8.41388012 176.8208388 8.39440918 179.18591309 C8.40240107 180.21534334 8.40240107 180.21534334 8.41055441 181.26557016 C8.34988805 185.53500103 7.59719564 188.22088963 5 191.625 C2.19084526 193.02957737 0.11189466 192.87395157 -3 192.625 C-6.1359157 190.84515595 -6.84102736 190.10191793 -8 186.625 C-8.10372769 184.21610479 -8.15216746 181.83565597 -8.15390015 179.42642212 C-8.1582824 178.6882637 -8.16266465 177.95010527 -8.1671797 177.18957841 C-8.18056414 174.70922809 -8.18674569 172.22891328 -8.19287109 169.74853516 C-8.20077217 167.97297505 -8.20904113 166.19741655 -8.21765137 164.42185974 C-8.24386493 158.58594292 -8.25917566 152.75001893 -8.2734375 146.9140625 C-8.27879695 144.90608083 -8.28417445 142.89809922 -8.28956985 140.89011765 C-8.3111952 132.53983749 -8.32993346 124.18955926 -8.34119225 115.83925819 C-8.35744288 103.8650271 -8.39065164 91.89111989 -8.44759309 79.9170109 C-8.48625423 71.50080596 -8.50582024 63.08468779 -8.51111281 54.66839635 C-8.51477075 49.63958926 -8.5268394 44.61112767 -8.55921555 39.58241653 C-8.58922984 34.85289055 -8.59563184 30.12392036 -8.58383179 25.39431953 C-8.58361051 23.65805937 -8.59196004 21.92177391 -8.60948563 20.18560219 C-8.63210858 17.81557717 -8.62391651 15.44757947 -8.60800171 13.07754517 C-8.6218838 12.38989409 -8.63576588 11.70224302 -8.65006864 10.99375403 C-8.58744176 7.21076772 -8.05033055 5.68766901 -5.64949989 2.69827843 C-3 0.625 -3 0.625 0 0 Z " fill="#383837" transform="translate(256,215.375)"/>
<path d="M0 0 C4.07729103 0.84943563 5.40728265 2.39876434 8 5.625 C8.48998803 8.3184505 8.67043109 10.37926089 8.62145996 13.06408691 C8.63104319 14.17388782 8.63104319 14.17388782 8.64082003 15.30610895 C8.6560587 17.78079792 8.63561799 20.25388288 8.61523438 22.72851562 C8.61873593 24.50437449 8.62439491 26.28023023 8.63204956 28.05607605 C8.64630223 32.8764181 8.6292313 37.69619003 8.60576439 42.51647758 C8.58566373 47.56034004 8.59153454 52.60417863 8.59387207 57.64807129 C8.59381849 66.1185039 8.57405649 74.58871351 8.54199219 83.05908203 C8.50509905 92.85269403 8.49631656 102.64601388 8.5032897 112.4396863 C8.50959447 121.85995206 8.49884088 131.28011761 8.47932434 140.70036316 C8.47114856 144.70982796 8.46844113 148.71924155 8.47001648 152.72871399 C8.47089528 157.4500154 8.45668028 162.17103908 8.43078995 166.89226723 C8.42362645 168.62526923 8.42154541 170.35830077 8.42490768 172.09131432 C8.4286212 174.45648211 8.41388012 176.8208388 8.39440918 179.18591309 C8.40240107 180.21534334 8.40240107 180.21534334 8.41055441 181.26557016 C8.34988805 185.53500103 7.59719564 188.22088963 5 191.625 C2.19084526 193.02957737 0.11189466 192.87395157 -3 192.625 C-6.1359157 190.84515595 -6.84102736 190.10191793 -8 186.625 C-8.10372769 184.21610479 -8.15216746 181.83565597 -8.15390015 179.42642212 C-8.1582824 178.6882637 -8.16266465 177.95010527 -8.1671797 177.18957841 C-8.18056414 174.70922809 -8.18674569 172.22891328 -8.19287109 169.74853516 C-8.20077217 167.97297505 -8.20904113 166.19741655 -8.21765137 164.42185974 C-8.24386493 158.58594292 -8.25917566 152.75001893 -8.2734375 146.9140625 C-8.27879695 144.90608083 -8.28417445 142.89809922 -8.28956985 140.89011765 C-8.3111952 132.53983749 -8.32993346 124.18955926 -8.34119225 115.83925819 C-8.35744288 103.8650271 -8.39065164 91.89111989 -8.44759309 79.9170109 C-8.48625423 71.50080596 -8.50582024 63.08468779 -8.51111281 54.66839635 C-8.51477075 49.63958926 -8.5268394 44.61112767 -8.55921555 39.58241653 C-8.58922984 34.85289055 -8.59563184 30.12392036 -8.58383179 25.39431953 C-8.58361051 23.65805937 -8.59196004 21.92177391 -8.60948563 20.18560219 C-8.63210858 17.81557717 -8.62391651 15.44757947 -8.60800171 13.07754517 C-8.6218838 12.38989409 -8.63576588 11.70224302 -8.65006864 10.99375403 C-8.58744176 7.21076772 -8.05033055 5.68766901 -5.64949989 2.69827843 C-3 0.625 -3 0.625 0 0 Z " fill="#383837" transform="translate(184,215.375)"/>
<path d="M0 0 C2.5 1.5 2.5 1.5 4 4 C4.791013 8.02098277 4.62153384 10.96411027 2.5 14.5 C-1.03588973 16.62153384 -3.97901723 16.791013 -8 16 C-10.5 14.5 -10.5 14.5 -12 12 C-12.791013 7.97901723 -12.62153384 5.03588973 -10.5 1.5 C-6.96411027 -0.62153384 -4.02098277 -0.791013 0 0 Z " fill="#383838" transform="translate(116,232)"/>
</svg>
